<mxfile host="app.diagrams.net" modified="2022-05-02T03:27:59.383Z" agent="5.0 (Windows NT 10.0; Win64; x64) AppleWebKit/537.36 (KHTML, like Gecko) Chrome/101.0.4951.41 Safari/537.36" etag="e1S7VlSkBubC8Z2QRsDZ" version="17.4.6" type="github">
  <diagram id="C5RBs43oDa-KdzZeNtuy" name="Page-1">
    <mxGraphModel dx="1422" dy="839" grid="1" gridSize="10" guides="1" tooltips="1" connect="1" arrows="1" fold="1" page="1" pageScale="1" pageWidth="827" pageHeight="1169" math="0" shadow="0">
      <root>
        <mxCell id="WIyWlLk6GJQsqaUBKTNV-0" />
        <mxCell id="WIyWlLk6GJQsqaUBKTNV-1" parent="WIyWlLk6GJQsqaUBKTNV-0" />
        <mxCell id="WIyWlLk6GJQsqaUBKTNV-2" value="" style="rounded=0;html=1;jettySize=auto;orthogonalLoop=1;fontSize=11;endArrow=block;endFill=0;endSize=8;strokeWidth=1;shadow=0;labelBackgroundColor=none;edgeStyle=orthogonalEdgeStyle;" parent="WIyWlLk6GJQsqaUBKTNV-1" source="WIyWlLk6GJQsqaUBKTNV-3" target="WIyWlLk6GJQsqaUBKTNV-6" edge="1">
          <mxGeometry relative="1" as="geometry" />
        </mxCell>
        <mxCell id="WIyWlLk6GJQsqaUBKTNV-3" value="货币变更" style="rounded=1;whiteSpace=wrap;html=1;fontSize=12;glass=0;strokeWidth=1;shadow=0;" parent="WIyWlLk6GJQsqaUBKTNV-1" vertex="1">
          <mxGeometry x="160" y="80" width="120" height="40" as="geometry" />
        </mxCell>
        <mxCell id="36pKezdzuMbXKm07dZ7W-1" value="" style="edgeStyle=orthogonalEdgeStyle;rounded=0;orthogonalLoop=1;jettySize=auto;html=1;" edge="1" parent="WIyWlLk6GJQsqaUBKTNV-1" source="WIyWlLk6GJQsqaUBKTNV-6" target="WIyWlLk6GJQsqaUBKTNV-7">
          <mxGeometry relative="1" as="geometry" />
        </mxCell>
        <mxCell id="36pKezdzuMbXKm07dZ7W-5" value="" style="edgeStyle=orthogonalEdgeStyle;rounded=0;orthogonalLoop=1;jettySize=auto;html=1;" edge="1" parent="WIyWlLk6GJQsqaUBKTNV-1" source="WIyWlLk6GJQsqaUBKTNV-6" target="WIyWlLk6GJQsqaUBKTNV-10">
          <mxGeometry relative="1" as="geometry" />
        </mxCell>
        <mxCell id="WIyWlLk6GJQsqaUBKTNV-6" value="校验触点端编码是否存在" style="rhombus;whiteSpace=wrap;html=1;shadow=0;fontFamily=Helvetica;fontSize=12;align=center;strokeWidth=1;spacing=6;spacingTop=-4;" parent="WIyWlLk6GJQsqaUBKTNV-1" vertex="1">
          <mxGeometry x="135" y="170" width="170" height="70" as="geometry" />
        </mxCell>
        <mxCell id="WIyWlLk6GJQsqaUBKTNV-7" value="抛出异常" style="rounded=1;whiteSpace=wrap;html=1;fontSize=12;glass=0;strokeWidth=1;shadow=0;" parent="WIyWlLk6GJQsqaUBKTNV-1" vertex="1">
          <mxGeometry x="350" y="185" width="120" height="40" as="geometry" />
        </mxCell>
        <mxCell id="36pKezdzuMbXKm07dZ7W-8" value="" style="edgeStyle=orthogonalEdgeStyle;rounded=0;orthogonalLoop=1;jettySize=auto;html=1;" edge="1" parent="WIyWlLk6GJQsqaUBKTNV-1" source="WIyWlLk6GJQsqaUBKTNV-10" target="36pKezdzuMbXKm07dZ7W-7">
          <mxGeometry relative="1" as="geometry" />
        </mxCell>
        <mxCell id="36pKezdzuMbXKm07dZ7W-11" style="edgeStyle=orthogonalEdgeStyle;rounded=0;orthogonalLoop=1;jettySize=auto;html=1;exitX=0.5;exitY=1;exitDx=0;exitDy=0;entryX=0.5;entryY=0;entryDx=0;entryDy=0;" edge="1" parent="WIyWlLk6GJQsqaUBKTNV-1" source="WIyWlLk6GJQsqaUBKTNV-10" target="36pKezdzuMbXKm07dZ7W-10">
          <mxGeometry relative="1" as="geometry" />
        </mxCell>
        <mxCell id="WIyWlLk6GJQsqaUBKTNV-10" value="校验策略编码&lt;br&gt;是否存在" style="rhombus;whiteSpace=wrap;html=1;shadow=0;fontFamily=Helvetica;fontSize=12;align=center;strokeWidth=1;spacing=6;spacingTop=-4;" parent="WIyWlLk6GJQsqaUBKTNV-1" vertex="1">
          <mxGeometry x="147.5" y="300" width="145" height="60" as="geometry" />
        </mxCell>
        <mxCell id="36pKezdzuMbXKm07dZ7W-2" value="否" style="text;html=1;strokeColor=none;fillColor=none;align=center;verticalAlign=middle;whiteSpace=wrap;rounded=0;" vertex="1" parent="WIyWlLk6GJQsqaUBKTNV-1">
          <mxGeometry x="320" y="185" width="20" height="20" as="geometry" />
        </mxCell>
        <mxCell id="36pKezdzuMbXKm07dZ7W-6" value="是" style="text;html=1;strokeColor=none;fillColor=none;align=center;verticalAlign=middle;whiteSpace=wrap;rounded=0;" vertex="1" parent="WIyWlLk6GJQsqaUBKTNV-1">
          <mxGeometry x="220" y="240" width="20" height="20" as="geometry" />
        </mxCell>
        <mxCell id="36pKezdzuMbXKm07dZ7W-7" value="抛出异常" style="rounded=1;whiteSpace=wrap;html=1;fontSize=12;glass=0;strokeWidth=1;shadow=0;" vertex="1" parent="WIyWlLk6GJQsqaUBKTNV-1">
          <mxGeometry x="350" y="310" width="120" height="40" as="geometry" />
        </mxCell>
        <mxCell id="36pKezdzuMbXKm07dZ7W-9" value="否" style="text;html=1;strokeColor=none;fillColor=none;align=center;verticalAlign=middle;whiteSpace=wrap;rounded=0;" vertex="1" parent="WIyWlLk6GJQsqaUBKTNV-1">
          <mxGeometry x="320" y="310" width="20" height="20" as="geometry" />
        </mxCell>
        <mxCell id="36pKezdzuMbXKm07dZ7W-13" value="" style="edgeStyle=orthogonalEdgeStyle;rounded=0;orthogonalLoop=1;jettySize=auto;html=1;" edge="1" parent="WIyWlLk6GJQsqaUBKTNV-1" source="36pKezdzuMbXKm07dZ7W-10" target="36pKezdzuMbXKm07dZ7W-12">
          <mxGeometry relative="1" as="geometry" />
        </mxCell>
        <mxCell id="36pKezdzuMbXKm07dZ7W-19" style="edgeStyle=orthogonalEdgeStyle;rounded=0;orthogonalLoop=1;jettySize=auto;html=1;exitX=0.5;exitY=1;exitDx=0;exitDy=0;" edge="1" parent="WIyWlLk6GJQsqaUBKTNV-1" source="36pKezdzuMbXKm07dZ7W-10" target="36pKezdzuMbXKm07dZ7W-15">
          <mxGeometry relative="1" as="geometry" />
        </mxCell>
        <mxCell id="36pKezdzuMbXKm07dZ7W-10" value="校验货币编码是否存在" style="rhombus;whiteSpace=wrap;html=1;shadow=0;fontFamily=Helvetica;fontSize=12;align=center;strokeWidth=1;spacing=6;spacingTop=-4;" vertex="1" parent="WIyWlLk6GJQsqaUBKTNV-1">
          <mxGeometry x="143.75" y="400" width="152.5" height="70" as="geometry" />
        </mxCell>
        <mxCell id="36pKezdzuMbXKm07dZ7W-12" value="抛出异常" style="rounded=1;whiteSpace=wrap;html=1;fontSize=12;glass=0;strokeWidth=1;shadow=0;" vertex="1" parent="WIyWlLk6GJQsqaUBKTNV-1">
          <mxGeometry x="350" y="415" width="120" height="40" as="geometry" />
        </mxCell>
        <mxCell id="36pKezdzuMbXKm07dZ7W-14" value="否" style="text;html=1;strokeColor=none;fillColor=none;align=center;verticalAlign=middle;whiteSpace=wrap;rounded=0;" vertex="1" parent="WIyWlLk6GJQsqaUBKTNV-1">
          <mxGeometry x="320" y="415" width="20" height="20" as="geometry" />
        </mxCell>
        <mxCell id="36pKezdzuMbXKm07dZ7W-17" value="" style="edgeStyle=orthogonalEdgeStyle;rounded=0;orthogonalLoop=1;jettySize=auto;html=1;" edge="1" parent="WIyWlLk6GJQsqaUBKTNV-1" source="36pKezdzuMbXKm07dZ7W-15" target="36pKezdzuMbXKm07dZ7W-16">
          <mxGeometry relative="1" as="geometry" />
        </mxCell>
        <mxCell id="36pKezdzuMbXKm07dZ7W-21" style="edgeStyle=orthogonalEdgeStyle;rounded=0;orthogonalLoop=1;jettySize=auto;html=1;exitX=0.5;exitY=1;exitDx=0;exitDy=0;entryX=0.5;entryY=0;entryDx=0;entryDy=0;" edge="1" parent="WIyWlLk6GJQsqaUBKTNV-1" source="36pKezdzuMbXKm07dZ7W-15" target="36pKezdzuMbXKm07dZ7W-20">
          <mxGeometry relative="1" as="geometry" />
        </mxCell>
        <mxCell id="36pKezdzuMbXKm07dZ7W-15" value="校验货币编码、触点编码、策略编码关联关系是否正确" style="rhombus;whiteSpace=wrap;html=1;shadow=0;fontFamily=Helvetica;fontSize=12;align=center;strokeWidth=1;spacing=6;spacingTop=-4;" vertex="1" parent="WIyWlLk6GJQsqaUBKTNV-1">
          <mxGeometry x="126.88" y="510" width="186.25" height="90" as="geometry" />
        </mxCell>
        <mxCell id="36pKezdzuMbXKm07dZ7W-16" value="抛出异常" style="rounded=1;whiteSpace=wrap;html=1;fontSize=12;glass=0;strokeWidth=1;shadow=0;" vertex="1" parent="WIyWlLk6GJQsqaUBKTNV-1">
          <mxGeometry x="350" y="535" width="120" height="40" as="geometry" />
        </mxCell>
        <mxCell id="36pKezdzuMbXKm07dZ7W-18" value="否" style="text;html=1;strokeColor=none;fillColor=none;align=center;verticalAlign=middle;whiteSpace=wrap;rounded=0;" vertex="1" parent="WIyWlLk6GJQsqaUBKTNV-1">
          <mxGeometry x="320" y="530" width="20" height="20" as="geometry" />
        </mxCell>
        <mxCell id="36pKezdzuMbXKm07dZ7W-23" value="" style="edgeStyle=orthogonalEdgeStyle;rounded=0;orthogonalLoop=1;jettySize=auto;html=1;" edge="1" parent="WIyWlLk6GJQsqaUBKTNV-1" source="36pKezdzuMbXKm07dZ7W-20" target="36pKezdzuMbXKm07dZ7W-22">
          <mxGeometry relative="1" as="geometry" />
        </mxCell>
        <mxCell id="36pKezdzuMbXKm07dZ7W-29" value="" style="edgeStyle=orthogonalEdgeStyle;rounded=0;orthogonalLoop=1;jettySize=auto;html=1;" edge="1" parent="WIyWlLk6GJQsqaUBKTNV-1" source="36pKezdzuMbXKm07dZ7W-20" target="36pKezdzuMbXKm07dZ7W-28">
          <mxGeometry relative="1" as="geometry" />
        </mxCell>
        <mxCell id="36pKezdzuMbXKm07dZ7W-20" value="策略与货币值参数验证" style="rhombus;whiteSpace=wrap;html=1;shadow=0;fontFamily=Helvetica;fontSize=12;align=center;strokeWidth=1;spacing=6;spacingTop=-4;" vertex="1" parent="WIyWlLk6GJQsqaUBKTNV-1">
          <mxGeometry x="143.75" y="640" width="152.5" height="70" as="geometry" />
        </mxCell>
        <mxCell id="36pKezdzuMbXKm07dZ7W-22" value="抛出异常" style="rounded=1;whiteSpace=wrap;html=1;fontSize=12;glass=0;strokeWidth=1;shadow=0;" vertex="1" parent="WIyWlLk6GJQsqaUBKTNV-1">
          <mxGeometry x="350" y="655" width="120" height="40" as="geometry" />
        </mxCell>
        <mxCell id="36pKezdzuMbXKm07dZ7W-24" value="否" style="text;html=1;strokeColor=none;fillColor=none;align=center;verticalAlign=middle;whiteSpace=wrap;rounded=0;" vertex="1" parent="WIyWlLk6GJQsqaUBKTNV-1">
          <mxGeometry x="320" y="655" width="20" height="20" as="geometry" />
        </mxCell>
        <mxCell id="36pKezdzuMbXKm07dZ7W-25" value="是" style="text;html=1;strokeColor=none;fillColor=none;align=center;verticalAlign=middle;whiteSpace=wrap;rounded=0;" vertex="1" parent="WIyWlLk6GJQsqaUBKTNV-1">
          <mxGeometry x="220" y="360" width="20" height="20" as="geometry" />
        </mxCell>
        <mxCell id="36pKezdzuMbXKm07dZ7W-26" value="是" style="text;html=1;strokeColor=none;fillColor=none;align=center;verticalAlign=middle;whiteSpace=wrap;rounded=0;" vertex="1" parent="WIyWlLk6GJQsqaUBKTNV-1">
          <mxGeometry x="220" y="470" width="20" height="20" as="geometry" />
        </mxCell>
        <mxCell id="36pKezdzuMbXKm07dZ7W-27" value="是" style="text;html=1;strokeColor=none;fillColor=none;align=center;verticalAlign=middle;whiteSpace=wrap;rounded=0;" vertex="1" parent="WIyWlLk6GJQsqaUBKTNV-1">
          <mxGeometry x="220" y="600" width="20" height="20" as="geometry" />
        </mxCell>
        <mxCell id="36pKezdzuMbXKm07dZ7W-31" style="edgeStyle=orthogonalEdgeStyle;rounded=0;orthogonalLoop=1;jettySize=auto;html=1;exitX=1;exitY=0.5;exitDx=0;exitDy=0;entryX=0;entryY=0.5;entryDx=0;entryDy=0;" edge="1" parent="WIyWlLk6GJQsqaUBKTNV-1" source="36pKezdzuMbXKm07dZ7W-28" target="36pKezdzuMbXKm07dZ7W-30">
          <mxGeometry relative="1" as="geometry" />
        </mxCell>
        <mxCell id="36pKezdzuMbXKm07dZ7W-35" value="" style="edgeStyle=orthogonalEdgeStyle;rounded=0;orthogonalLoop=1;jettySize=auto;html=1;" edge="1" parent="WIyWlLk6GJQsqaUBKTNV-1" source="36pKezdzuMbXKm07dZ7W-28" target="36pKezdzuMbXKm07dZ7W-34">
          <mxGeometry relative="1" as="geometry" />
        </mxCell>
        <mxCell id="36pKezdzuMbXKm07dZ7W-28" value="查询账号是否存在" style="rhombus;whiteSpace=wrap;html=1;shadow=0;fontFamily=Helvetica;fontSize=12;align=center;strokeWidth=1;spacing=6;spacingTop=-4;" vertex="1" parent="WIyWlLk6GJQsqaUBKTNV-1">
          <mxGeometry x="143.75" y="750" width="152.5" height="70" as="geometry" />
        </mxCell>
        <mxCell id="36pKezdzuMbXKm07dZ7W-36" style="edgeStyle=orthogonalEdgeStyle;rounded=0;orthogonalLoop=1;jettySize=auto;html=1;exitX=0.5;exitY=1;exitDx=0;exitDy=0;entryX=1;entryY=0.5;entryDx=0;entryDy=0;" edge="1" parent="WIyWlLk6GJQsqaUBKTNV-1" source="36pKezdzuMbXKm07dZ7W-30" target="36pKezdzuMbXKm07dZ7W-34">
          <mxGeometry relative="1" as="geometry" />
        </mxCell>
        <mxCell id="36pKezdzuMbXKm07dZ7W-30" value="创建账号" style="rounded=1;whiteSpace=wrap;html=1;fontSize=12;glass=0;strokeWidth=1;shadow=0;" vertex="1" parent="WIyWlLk6GJQsqaUBKTNV-1">
          <mxGeometry x="354" y="765" width="120" height="40" as="geometry" />
        </mxCell>
        <mxCell id="36pKezdzuMbXKm07dZ7W-32" value="否" style="text;html=1;strokeColor=none;fillColor=none;align=center;verticalAlign=middle;whiteSpace=wrap;rounded=0;" vertex="1" parent="WIyWlLk6GJQsqaUBKTNV-1">
          <mxGeometry x="330" y="765" width="20" height="20" as="geometry" />
        </mxCell>
        <mxCell id="36pKezdzuMbXKm07dZ7W-90" style="edgeStyle=orthogonalEdgeStyle;rounded=0;orthogonalLoop=1;jettySize=auto;html=1;exitX=0.5;exitY=1;exitDx=0;exitDy=0;entryX=0.5;entryY=0;entryDx=0;entryDy=0;" edge="1" parent="WIyWlLk6GJQsqaUBKTNV-1" source="36pKezdzuMbXKm07dZ7W-34" target="36pKezdzuMbXKm07dZ7W-38">
          <mxGeometry relative="1" as="geometry" />
        </mxCell>
        <mxCell id="36pKezdzuMbXKm07dZ7W-34" value="获取账号信息" style="rounded=1;whiteSpace=wrap;html=1;fontSize=12;glass=0;strokeWidth=1;shadow=0;" vertex="1" parent="WIyWlLk6GJQsqaUBKTNV-1">
          <mxGeometry x="160" y="860" width="120" height="40" as="geometry" />
        </mxCell>
        <mxCell id="36pKezdzuMbXKm07dZ7W-91" style="edgeStyle=orthogonalEdgeStyle;rounded=0;orthogonalLoop=1;jettySize=auto;html=1;exitX=0.5;exitY=1;exitDx=0;exitDy=0;entryX=0.5;entryY=0;entryDx=0;entryDy=0;" edge="1" parent="WIyWlLk6GJQsqaUBKTNV-1" source="36pKezdzuMbXKm07dZ7W-38" target="36pKezdzuMbXKm07dZ7W-39">
          <mxGeometry relative="1" as="geometry" />
        </mxCell>
        <mxCell id="36pKezdzuMbXKm07dZ7W-38" value="根据货币策略计算变更的货币值" style="rounded=1;whiteSpace=wrap;html=1;fontSize=12;glass=0;strokeWidth=1;shadow=0;" vertex="1" parent="WIyWlLk6GJQsqaUBKTNV-1">
          <mxGeometry x="160.01" y="930" width="120" height="40" as="geometry" />
        </mxCell>
        <mxCell id="36pKezdzuMbXKm07dZ7W-92" style="edgeStyle=orthogonalEdgeStyle;rounded=0;orthogonalLoop=1;jettySize=auto;html=1;exitX=0.5;exitY=1;exitDx=0;exitDy=0;" edge="1" parent="WIyWlLk6GJQsqaUBKTNV-1" source="36pKezdzuMbXKm07dZ7W-39" target="36pKezdzuMbXKm07dZ7W-51">
          <mxGeometry relative="1" as="geometry" />
        </mxCell>
        <mxCell id="36pKezdzuMbXKm07dZ7W-39" value="根据等级计算系数" style="rounded=1;whiteSpace=wrap;html=1;fontSize=12;glass=0;strokeWidth=1;shadow=0;" vertex="1" parent="WIyWlLk6GJQsqaUBKTNV-1">
          <mxGeometry x="160.01" y="1000" width="120" height="40" as="geometry" />
        </mxCell>
        <mxCell id="36pKezdzuMbXKm07dZ7W-81" style="edgeStyle=orthogonalEdgeStyle;rounded=0;orthogonalLoop=1;jettySize=auto;html=1;exitX=1;exitY=0.5;exitDx=0;exitDy=0;entryX=0.5;entryY=0;entryDx=0;entryDy=0;" edge="1" parent="WIyWlLk6GJQsqaUBKTNV-1" source="36pKezdzuMbXKm07dZ7W-42" target="36pKezdzuMbXKm07dZ7W-45">
          <mxGeometry relative="1" as="geometry">
            <mxPoint x="219" y="1530" as="targetPoint" />
            <Array as="points">
              <mxPoint x="514" y="1285" />
              <mxPoint x="514" y="1530" />
              <mxPoint x="219" y="1530" />
            </Array>
          </mxGeometry>
        </mxCell>
        <mxCell id="36pKezdzuMbXKm07dZ7W-82" value="" style="edgeStyle=orthogonalEdgeStyle;rounded=0;orthogonalLoop=1;jettySize=auto;html=1;" edge="1" parent="WIyWlLk6GJQsqaUBKTNV-1" source="36pKezdzuMbXKm07dZ7W-42" target="36pKezdzuMbXKm07dZ7W-57">
          <mxGeometry relative="1" as="geometry" />
        </mxCell>
        <mxCell id="36pKezdzuMbXKm07dZ7W-42" value="是否有账户池" style="rhombus;whiteSpace=wrap;html=1;shadow=0;fontFamily=Helvetica;fontSize=12;align=center;strokeWidth=1;spacing=6;spacingTop=-4;" vertex="1" parent="WIyWlLk6GJQsqaUBKTNV-1">
          <mxGeometry x="148.98999999999998" y="1260" width="142.02" height="50" as="geometry" />
        </mxCell>
        <mxCell id="36pKezdzuMbXKm07dZ7W-65" style="edgeStyle=orthogonalEdgeStyle;rounded=0;orthogonalLoop=1;jettySize=auto;html=1;exitX=1;exitY=0.5;exitDx=0;exitDy=0;entryX=0;entryY=0.5;entryDx=0;entryDy=0;" edge="1" parent="WIyWlLk6GJQsqaUBKTNV-1" source="36pKezdzuMbXKm07dZ7W-45" target="36pKezdzuMbXKm07dZ7W-61">
          <mxGeometry relative="1" as="geometry" />
        </mxCell>
        <mxCell id="36pKezdzuMbXKm07dZ7W-68" value="" style="edgeStyle=orthogonalEdgeStyle;rounded=0;orthogonalLoop=1;jettySize=auto;html=1;" edge="1" parent="WIyWlLk6GJQsqaUBKTNV-1" source="36pKezdzuMbXKm07dZ7W-45" target="36pKezdzuMbXKm07dZ7W-46">
          <mxGeometry relative="1" as="geometry" />
        </mxCell>
        <mxCell id="36pKezdzuMbXKm07dZ7W-45" value="是否自动兑换" style="rhombus;whiteSpace=wrap;html=1;shadow=0;fontFamily=Helvetica;fontSize=12;align=center;strokeWidth=1;spacing=6;spacingTop=-4;" vertex="1" parent="WIyWlLk6GJQsqaUBKTNV-1">
          <mxGeometry x="146.85" y="1537" width="144.37" height="70" as="geometry" />
        </mxCell>
        <mxCell id="36pKezdzuMbXKm07dZ7W-70" value="" style="edgeStyle=orthogonalEdgeStyle;rounded=0;orthogonalLoop=1;jettySize=auto;html=1;" edge="1" parent="WIyWlLk6GJQsqaUBKTNV-1" source="36pKezdzuMbXKm07dZ7W-46" target="36pKezdzuMbXKm07dZ7W-69">
          <mxGeometry relative="1" as="geometry" />
        </mxCell>
        <mxCell id="36pKezdzuMbXKm07dZ7W-76" value="" style="edgeStyle=orthogonalEdgeStyle;rounded=0;orthogonalLoop=1;jettySize=auto;html=1;" edge="1" parent="WIyWlLk6GJQsqaUBKTNV-1" source="36pKezdzuMbXKm07dZ7W-46" target="36pKezdzuMbXKm07dZ7W-48">
          <mxGeometry relative="1" as="geometry" />
        </mxCell>
        <mxCell id="36pKezdzuMbXKm07dZ7W-46" value="是否计算排行榜" style="rhombus;whiteSpace=wrap;html=1;shadow=0;fontFamily=Helvetica;fontSize=12;align=center;strokeWidth=1;spacing=6;spacingTop=-4;" vertex="1" parent="WIyWlLk6GJQsqaUBKTNV-1">
          <mxGeometry x="142.79" y="1652" width="152.5" height="70" as="geometry" />
        </mxCell>
        <mxCell id="36pKezdzuMbXKm07dZ7W-79" value="" style="edgeStyle=orthogonalEdgeStyle;rounded=0;orthogonalLoop=1;jettySize=auto;html=1;" edge="1" parent="WIyWlLk6GJQsqaUBKTNV-1" source="36pKezdzuMbXKm07dZ7W-48" target="36pKezdzuMbXKm07dZ7W-49">
          <mxGeometry relative="1" as="geometry" />
        </mxCell>
        <mxCell id="36pKezdzuMbXKm07dZ7W-48" value="增加流水" style="rounded=1;whiteSpace=wrap;html=1;fontSize=12;glass=0;strokeWidth=1;shadow=0;" vertex="1" parent="WIyWlLk6GJQsqaUBKTNV-1">
          <mxGeometry x="159.04" y="1777" width="120" height="40" as="geometry" />
        </mxCell>
        <mxCell id="36pKezdzuMbXKm07dZ7W-49" value="修改账号值" style="rounded=1;whiteSpace=wrap;html=1;fontSize=12;glass=0;strokeWidth=1;shadow=0;" vertex="1" parent="WIyWlLk6GJQsqaUBKTNV-1">
          <mxGeometry x="159.04" y="1867" width="120" height="40" as="geometry" />
        </mxCell>
        <mxCell id="36pKezdzuMbXKm07dZ7W-54" style="edgeStyle=orthogonalEdgeStyle;rounded=0;orthogonalLoop=1;jettySize=auto;html=1;exitX=1;exitY=0.5;exitDx=0;exitDy=0;" edge="1" parent="WIyWlLk6GJQsqaUBKTNV-1" source="36pKezdzuMbXKm07dZ7W-51" target="36pKezdzuMbXKm07dZ7W-52">
          <mxGeometry relative="1" as="geometry" />
        </mxCell>
        <mxCell id="36pKezdzuMbXKm07dZ7W-94" value="" style="edgeStyle=orthogonalEdgeStyle;rounded=0;orthogonalLoop=1;jettySize=auto;html=1;" edge="1" parent="WIyWlLk6GJQsqaUBKTNV-1" source="36pKezdzuMbXKm07dZ7W-51" target="36pKezdzuMbXKm07dZ7W-93">
          <mxGeometry relative="1" as="geometry" />
        </mxCell>
        <mxCell id="36pKezdzuMbXKm07dZ7W-51" value="校验账号是否够扣减" style="rhombus;whiteSpace=wrap;html=1;shadow=0;fontFamily=Helvetica;fontSize=12;align=center;strokeWidth=1;spacing=6;spacingTop=-4;" vertex="1" parent="WIyWlLk6GJQsqaUBKTNV-1">
          <mxGeometry x="143.76" y="1062" width="152.5" height="68" as="geometry" />
        </mxCell>
        <mxCell id="36pKezdzuMbXKm07dZ7W-52" value="抛出异常" style="rounded=1;whiteSpace=wrap;html=1;fontSize=12;glass=0;strokeWidth=1;shadow=0;" vertex="1" parent="WIyWlLk6GJQsqaUBKTNV-1">
          <mxGeometry x="354.22" y="1076" width="120" height="40" as="geometry" />
        </mxCell>
        <mxCell id="36pKezdzuMbXKm07dZ7W-53" value="否" style="text;html=1;strokeColor=none;fillColor=none;align=center;verticalAlign=middle;whiteSpace=wrap;rounded=0;" vertex="1" parent="WIyWlLk6GJQsqaUBKTNV-1">
          <mxGeometry x="330" y="1070" width="20" height="20" as="geometry" />
        </mxCell>
        <mxCell id="36pKezdzuMbXKm07dZ7W-59" value="" style="edgeStyle=orthogonalEdgeStyle;rounded=0;orthogonalLoop=1;jettySize=auto;html=1;" edge="1" parent="WIyWlLk6GJQsqaUBKTNV-1" source="36pKezdzuMbXKm07dZ7W-57" target="36pKezdzuMbXKm07dZ7W-58">
          <mxGeometry relative="1" as="geometry" />
        </mxCell>
        <mxCell id="36pKezdzuMbXKm07dZ7W-62" value="" style="edgeStyle=orthogonalEdgeStyle;rounded=0;orthogonalLoop=1;jettySize=auto;html=1;" edge="1" parent="WIyWlLk6GJQsqaUBKTNV-1" source="36pKezdzuMbXKm07dZ7W-57" target="36pKezdzuMbXKm07dZ7W-60">
          <mxGeometry relative="1" as="geometry" />
        </mxCell>
        <mxCell id="36pKezdzuMbXKm07dZ7W-57" value="校验货币池是否达到上限" style="rhombus;whiteSpace=wrap;html=1;shadow=0;fontFamily=Helvetica;fontSize=12;align=center;strokeWidth=1;spacing=6;spacingTop=-4;" vertex="1" parent="WIyWlLk6GJQsqaUBKTNV-1">
          <mxGeometry x="143.75" y="1350" width="152.5" height="70" as="geometry" />
        </mxCell>
        <mxCell id="36pKezdzuMbXKm07dZ7W-58" value="抛出异常" style="rounded=1;whiteSpace=wrap;html=1;fontSize=12;glass=0;strokeWidth=1;shadow=0;" vertex="1" parent="WIyWlLk6GJQsqaUBKTNV-1">
          <mxGeometry x="354" y="1365" width="120" height="40" as="geometry" />
        </mxCell>
        <mxCell id="36pKezdzuMbXKm07dZ7W-80" value="" style="edgeStyle=orthogonalEdgeStyle;rounded=0;orthogonalLoop=1;jettySize=auto;html=1;" edge="1" parent="WIyWlLk6GJQsqaUBKTNV-1" target="36pKezdzuMbXKm07dZ7W-45">
          <mxGeometry relative="1" as="geometry">
            <mxPoint x="220" y="1483" as="sourcePoint" />
          </mxGeometry>
        </mxCell>
        <mxCell id="36pKezdzuMbXKm07dZ7W-60" value="增加货币池值" style="rounded=1;whiteSpace=wrap;html=1;fontSize=12;glass=0;strokeWidth=1;shadow=0;" vertex="1" parent="WIyWlLk6GJQsqaUBKTNV-1">
          <mxGeometry x="160" y="1467" width="120" height="40" as="geometry" />
        </mxCell>
        <mxCell id="36pKezdzuMbXKm07dZ7W-66" value="" style="edgeStyle=orthogonalEdgeStyle;rounded=0;orthogonalLoop=1;jettySize=auto;html=1;" edge="1" parent="WIyWlLk6GJQsqaUBKTNV-1" source="36pKezdzuMbXKm07dZ7W-61" target="36pKezdzuMbXKm07dZ7W-63">
          <mxGeometry relative="1" as="geometry" />
        </mxCell>
        <mxCell id="36pKezdzuMbXKm07dZ7W-61" value="计算源账号最后的值" style="rounded=1;whiteSpace=wrap;html=1;fontSize=12;glass=0;strokeWidth=1;shadow=0;" vertex="1" parent="WIyWlLk6GJQsqaUBKTNV-1">
          <mxGeometry x="355.22" y="1552" width="120" height="40" as="geometry" />
        </mxCell>
        <mxCell id="36pKezdzuMbXKm07dZ7W-64" style="edgeStyle=orthogonalEdgeStyle;rounded=0;orthogonalLoop=1;jettySize=auto;html=1;exitX=0.5;exitY=1;exitDx=0;exitDy=0;entryX=1;entryY=0.5;entryDx=0;entryDy=0;" edge="1" parent="WIyWlLk6GJQsqaUBKTNV-1" source="36pKezdzuMbXKm07dZ7W-63" target="36pKezdzuMbXKm07dZ7W-48">
          <mxGeometry relative="1" as="geometry" />
        </mxCell>
        <mxCell id="36pKezdzuMbXKm07dZ7W-63" value="计算去向账号最后的值" style="rounded=1;whiteSpace=wrap;html=1;fontSize=12;glass=0;strokeWidth=1;shadow=0;" vertex="1" parent="WIyWlLk6GJQsqaUBKTNV-1">
          <mxGeometry x="531.2199999999999" y="1552" width="140" height="40" as="geometry" />
        </mxCell>
        <mxCell id="36pKezdzuMbXKm07dZ7W-69" value="异步计算排行榜" style="rounded=1;whiteSpace=wrap;html=1;fontSize=12;glass=0;strokeWidth=1;shadow=0;" vertex="1" parent="WIyWlLk6GJQsqaUBKTNV-1">
          <mxGeometry x="355.22" y="1667" width="120" height="40" as="geometry" />
        </mxCell>
        <mxCell id="36pKezdzuMbXKm07dZ7W-72" value="是" style="text;html=1;strokeColor=none;fillColor=none;align=center;verticalAlign=middle;whiteSpace=wrap;rounded=0;" vertex="1" parent="WIyWlLk6GJQsqaUBKTNV-1">
          <mxGeometry x="331.22" y="1667" width="20" height="20" as="geometry" />
        </mxCell>
        <mxCell id="36pKezdzuMbXKm07dZ7W-74" value="是" style="text;html=1;strokeColor=none;fillColor=none;align=center;verticalAlign=middle;whiteSpace=wrap;rounded=0;" vertex="1" parent="WIyWlLk6GJQsqaUBKTNV-1">
          <mxGeometry x="335.22" y="1552" width="20" height="20" as="geometry" />
        </mxCell>
        <mxCell id="36pKezdzuMbXKm07dZ7W-75" value="否" style="text;html=1;strokeColor=none;fillColor=none;align=center;verticalAlign=middle;whiteSpace=wrap;rounded=0;" vertex="1" parent="WIyWlLk6GJQsqaUBKTNV-1">
          <mxGeometry x="221.22" y="1607" width="20" height="20" as="geometry" />
        </mxCell>
        <mxCell id="36pKezdzuMbXKm07dZ7W-77" value="否" style="text;html=1;strokeColor=none;fillColor=none;align=center;verticalAlign=middle;whiteSpace=wrap;rounded=0;" vertex="1" parent="WIyWlLk6GJQsqaUBKTNV-1">
          <mxGeometry x="221.22" y="1722" width="20" height="20" as="geometry" />
        </mxCell>
        <mxCell id="36pKezdzuMbXKm07dZ7W-84" value="否" style="text;html=1;strokeColor=none;fillColor=none;align=center;verticalAlign=middle;whiteSpace=wrap;rounded=0;" vertex="1" parent="WIyWlLk6GJQsqaUBKTNV-1">
          <mxGeometry x="334.22" y="1266" width="20" height="20" as="geometry" />
        </mxCell>
        <mxCell id="36pKezdzuMbXKm07dZ7W-85" value="是" style="text;html=1;strokeColor=none;fillColor=none;align=center;verticalAlign=middle;whiteSpace=wrap;rounded=0;" vertex="1" parent="WIyWlLk6GJQsqaUBKTNV-1">
          <mxGeometry x="221.22" y="1312" width="20" height="20" as="geometry" />
        </mxCell>
        <mxCell id="36pKezdzuMbXKm07dZ7W-86" value="是" style="text;html=1;strokeColor=none;fillColor=none;align=center;verticalAlign=middle;whiteSpace=wrap;rounded=0;" vertex="1" parent="WIyWlLk6GJQsqaUBKTNV-1">
          <mxGeometry x="334.22" y="1364" width="20" height="20" as="geometry" />
        </mxCell>
        <mxCell id="36pKezdzuMbXKm07dZ7W-87" value="否" style="text;html=1;strokeColor=none;fillColor=none;align=center;verticalAlign=middle;whiteSpace=wrap;rounded=0;" vertex="1" parent="WIyWlLk6GJQsqaUBKTNV-1">
          <mxGeometry x="224.22" y="1426" width="20" height="20" as="geometry" />
        </mxCell>
        <mxCell id="36pKezdzuMbXKm07dZ7W-96" value="" style="edgeStyle=orthogonalEdgeStyle;rounded=0;orthogonalLoop=1;jettySize=auto;html=1;" edge="1" parent="WIyWlLk6GJQsqaUBKTNV-1" source="36pKezdzuMbXKm07dZ7W-93" target="36pKezdzuMbXKm07dZ7W-95">
          <mxGeometry relative="1" as="geometry" />
        </mxCell>
        <mxCell id="36pKezdzuMbXKm07dZ7W-99" style="edgeStyle=orthogonalEdgeStyle;rounded=0;orthogonalLoop=1;jettySize=auto;html=1;exitX=0.5;exitY=1;exitDx=0;exitDy=0;" edge="1" parent="WIyWlLk6GJQsqaUBKTNV-1" source="36pKezdzuMbXKm07dZ7W-93" target="36pKezdzuMbXKm07dZ7W-42">
          <mxGeometry relative="1" as="geometry" />
        </mxCell>
        <mxCell id="36pKezdzuMbXKm07dZ7W-93" value="校验限制数量 获取总值" style="rhombus;whiteSpace=wrap;html=1;shadow=0;fontFamily=Helvetica;fontSize=12;align=center;strokeWidth=1;spacing=6;spacingTop=-4;" vertex="1" parent="WIyWlLk6GJQsqaUBKTNV-1">
          <mxGeometry x="143.75" y="1164" width="152.5" height="60" as="geometry" />
        </mxCell>
        <mxCell id="36pKezdzuMbXKm07dZ7W-95" value="抛出异常" style="rounded=1;whiteSpace=wrap;html=1;fontSize=12;glass=0;strokeWidth=1;shadow=0;" vertex="1" parent="WIyWlLk6GJQsqaUBKTNV-1">
          <mxGeometry x="354" y="1174" width="120" height="40" as="geometry" />
        </mxCell>
        <mxCell id="36pKezdzuMbXKm07dZ7W-97" value="否" style="text;html=1;strokeColor=none;fillColor=none;align=center;verticalAlign=middle;whiteSpace=wrap;rounded=0;" vertex="1" parent="WIyWlLk6GJQsqaUBKTNV-1">
          <mxGeometry x="334" y="1174" width="20" height="20" as="geometry" />
        </mxCell>
        <mxCell id="36pKezdzuMbXKm07dZ7W-101" value="是" style="text;html=1;strokeColor=none;fillColor=none;align=center;verticalAlign=middle;whiteSpace=wrap;rounded=0;" vertex="1" parent="WIyWlLk6GJQsqaUBKTNV-1">
          <mxGeometry x="220" y="710" width="20" height="20" as="geometry" />
        </mxCell>
        <mxCell id="36pKezdzuMbXKm07dZ7W-102" value="是" style="text;html=1;strokeColor=none;fillColor=none;align=center;verticalAlign=middle;whiteSpace=wrap;rounded=0;" vertex="1" parent="WIyWlLk6GJQsqaUBKTNV-1">
          <mxGeometry x="220" y="820" width="20" height="20" as="geometry" />
        </mxCell>
        <mxCell id="36pKezdzuMbXKm07dZ7W-103" value="是" style="text;html=1;strokeColor=none;fillColor=none;align=center;verticalAlign=middle;whiteSpace=wrap;rounded=0;" vertex="1" parent="WIyWlLk6GJQsqaUBKTNV-1">
          <mxGeometry x="220" y="1130" width="20" height="20" as="geometry" />
        </mxCell>
        <mxCell id="36pKezdzuMbXKm07dZ7W-105" value="是" style="text;html=1;strokeColor=none;fillColor=none;align=center;verticalAlign=middle;whiteSpace=wrap;rounded=0;" vertex="1" parent="WIyWlLk6GJQsqaUBKTNV-1">
          <mxGeometry x="220" y="1224" width="20" height="20" as="geometry" />
        </mxCell>
      </root>
    </mxGraphModel>
  </diagram>
</mxfile>
